<svg width="22" height="22" viewBox="0 0 22 22" fill="none" xmlns="http://www.w3.org/2000/svg">
<path d="M17.2932 12.2428V9.07116C17.2932 6.2259 15.3607 3.82906 12.7427 3.10824C12.4836 2.45552 11.8503 1.99561 11.1021 1.99561C10.3539 1.99561 9.72059 2.45552 9.46145 3.10824C6.84349 3.82994 4.91098 6.2259 4.91098 9.07116V12.2428L3.40123 13.7525C3.31894 13.8345 3.25368 13.932 3.20921 14.0393C3.16473 14.1466 3.14192 14.2617 3.14209 14.3778V16.1467C3.14209 16.3813 3.23527 16.6062 3.40114 16.7721C3.567 16.938 3.79197 17.0312 4.02654 17.0312H18.1776C18.4122 17.0312 18.6372 16.938 18.803 16.7721C18.9689 16.6062 19.0621 16.3813 19.0621 16.1467V14.3778C19.0623 14.2617 19.0395 14.1466 18.995 14.0393C18.9505 13.932 18.8852 13.8345 18.803 13.7525L17.2932 12.2428ZM17.2932 15.2623H4.91098V14.744L6.42073 13.2342C6.50302 13.1522 6.56828 13.0548 6.61275 12.9475C6.65723 12.8402 6.68004 12.7251 6.67987 12.6089V9.07116C6.67987 6.63275 8.66368 4.64894 11.1021 4.64894C13.5405 4.64894 15.5243 6.63275 15.5243 9.07116V12.6089C15.5243 12.8442 15.6172 13.0688 15.7835 13.2342L17.2932 14.744V15.2623ZM11.1021 19.6845C11.6498 19.6852 12.1842 19.5152 12.6308 19.1982C13.0775 18.8812 13.4143 18.4329 13.5945 17.9156H8.60973C8.78985 18.4329 9.12666 18.8812 9.57334 19.1982C10.02 19.5152 10.5544 19.6852 11.1021 19.6845Z" fill="#080721"/>
</svg>
