<svg width="25" height="25" viewBox="0 0 25 25" fill="none" xmlns="http://www.w3.org/2000/svg">
<path d="M24.4531 0.359863V24.3599H0.453125V0.359863H24.4531Z" fill="white" fill-opacity="0.01"/>
<path d="M12.4531 2.35986C15.1046 2.35986 17.65 3.41395 19.5234 5.28857C21.3984 7.16326 22.4531 9.70877 22.4531 12.3599C22.4531 15.011 21.3984 17.5565 19.5234 19.4312C17.65 21.3058 15.1046 22.3599 12.4531 22.3599C9.80161 22.3599 7.25624 21.3058 5.38281 19.4312C3.50781 17.5565 2.45312 15.011 2.45312 12.3599C2.45364 9.70765 3.50744 7.16401 5.38281 5.28857C7.25624 3.41395 9.80161 2.35986 12.4531 2.35986ZM16.542 8.37939C16.1654 8.38622 15.5885 8.58663 12.8105 9.7417C11.8386 10.1462 9.89499 10.9844 6.97949 12.2544C6.50638 12.4426 6.25738 12.6262 6.23535 12.8062C6.1916 13.1519 6.69047 13.2598 7.31543 13.4634C7.82633 13.6293 8.51384 13.8239 8.87012 13.8315C9.19509 13.8386 9.55571 13.7042 9.9541 13.4302C12.6737 11.5953 14.0787 10.6666 14.1729 10.6431C14.2354 10.629 14.3221 10.6106 14.3799 10.6626C14.439 10.7143 14.433 10.8126 14.4268 10.8394C14.3783 11.0504 11.8202 13.3765 11.6719 13.5308C11.1094 14.1151 10.4687 14.4729 11.4561 15.1235C12.3107 15.6865 12.8078 16.0455 13.6875 16.6226C14.2499 16.9911 14.6904 17.4287 15.2715 17.3755C15.5386 17.351 15.815 17.0992 15.9541 16.3501C16.2853 14.5791 16.9368 10.7421 17.0869 9.16064C17.101 9.02238 17.0838 8.84505 17.0713 8.76709C17.0572 8.6892 17.0297 8.57764 16.9297 8.49561C16.8094 8.39838 16.6248 8.37807 16.542 8.37939Z" fill="url(#paint0_linear_93_2466)"/>
<defs>
<linearGradient id="paint0_linear_93_2466" x1="12.4531" y1="2.35986" x2="12.4531" y2="22.3599" gradientUnits="userSpaceOnUse">
<stop stop-color="#2AABEE"/>
<stop offset="1" stop-color="#229ED9"/>
</linearGradient>
</defs>
</svg>
