<svg width="24" height="24" viewBox="0 0 24 24" fill="none" xmlns="http://www.w3.org/2000/svg">
<path d="M24 0V24H0V0H24Z" fill="white" fill-opacity="0.01"/>
<path d="M21.9155 11.5497C21.8221 8.99542 20.7458 6.57599 18.9111 4.79653C17.0763 3.01706 14.6251 2.01515 12.0693 2H12.021C10.2998 1.99872 8.60801 2.44558 7.11192 3.29661C5.61587 4.14764 4.36716 5.3735 3.48866 6.85358C2.61016 8.33368 2.13215 10.017 2.10165 11.7379C2.07116 13.4588 2.48923 15.1579 3.31474 16.6683L2.43818 21.9135C2.43675 21.9243 2.43763 21.9352 2.44076 21.9456C2.44389 21.956 2.4492 21.9656 2.45634 21.9738C2.46347 21.982 2.47226 21.9885 2.48213 21.9931C2.492 21.9976 2.50272 21.9999 2.51357 22H2.52865L7.71662 20.846C9.05708 21.4895 10.525 21.8235 12.0119 21.8231C12.1065 21.8231 12.2009 21.8231 12.2954 21.8231C13.6034 21.7857 14.8911 21.4897 16.084 20.9521C17.277 20.4145 18.3517 19.646 19.2461 18.6909C20.1405 17.7357 20.8369 16.6129 21.295 15.3872C21.7531 14.1615 21.964 12.8573 21.9155 11.5497ZM12.2461 20.0991C12.1677 20.0991 12.0893 20.0991 12.0119 20.0991C10.6978 20.1007 9.40247 19.7863 8.23532 19.1823L7.96994 19.0436L4.45165 19.8749L5.10102 16.3154L4.95024 16.0601C4.23007 14.8323 3.84217 13.438 3.82474 12.0146C3.8073 10.5913 4.16093 9.18788 4.85081 7.94278C5.54069 6.69766 6.543 5.65372 7.75904 4.91378C8.97507 4.17384 10.3629 3.76342 11.7858 3.72296C11.8649 3.72296 11.9443 3.72296 12.024 3.72296C14.1723 3.72933 16.2321 4.57938 17.7597 6.08998C19.2872 7.60057 20.1602 9.65082 20.1905 11.7989C20.2208 13.947 19.4061 16.021 17.9218 17.5741C16.4375 19.1273 14.4025 20.0351 12.2552 20.1021L12.2461 20.0991Z" fill="#25D366"/>
<path d="M8.21062 7.20578C8.32251 7.15588 8.44327 7.12894 8.56574 7.12655L8.58687 7.12354C8.75274 7.12856 8.9186 7.13359 9.06334 7.14364L9.06443 7.14372C9.2401 7.15677 9.44068 7.17166 9.6092 7.598C9.81727 8.0976 10.2606 9.34306 10.3199 9.46973C10.3571 9.53619 10.3773 9.61079 10.3785 9.68699C10.3797 9.76313 10.362 9.83839 10.3269 9.90599C10.2591 10.0517 10.1711 10.187 10.0655 10.3081C9.93687 10.4499 9.8032 10.6137 9.67854 10.7323C9.55387 10.8509 9.4172 10.9816 9.55387 11.2349C9.9076 11.8875 10.3561 12.4841 10.8848 13.0051C11.4506 13.5591 12.1151 14.0024 12.844 14.3119C12.9283 14.3561 13.0213 14.3811 13.1164 14.3853C13.168 14.3844 13.2189 14.3727 13.2656 14.3509C13.3123 14.329 13.354 14.2976 13.3878 14.2587C13.5427 14.1018 14.0041 13.558 14.2051 13.3077C14.2364 13.2563 14.2798 13.2133 14.3315 13.1825C14.3831 13.1517 14.4415 13.1339 14.5016 13.1308C14.5939 13.1376 14.6841 13.1611 14.768 13.2001C14.9942 13.2906 16.1975 13.9339 16.4427 14.0626C16.688 14.1913 16.8509 14.2637 16.9101 14.3642C16.9695 14.4647 16.9544 14.9673 16.7292 15.5423C16.5041 16.1173 15.4717 16.6461 15.0143 16.6742C14.8786 16.6823 14.7489 16.7003 14.577 16.7003C14.1599 16.7003 13.5165 16.5918 12.0489 15.9595C9.55187 14.8869 8.03601 12.2421 7.91638 12.0723L7.91542 12.0709C7.79226 11.896 6.94142 10.6878 6.97951 9.46673C7.01771 8.24235 7.67814 7.65932 7.91438 7.41706C7.998 7.32753 8.09874 7.25568 8.21062 7.20578Z" fill="#25D366"/>
</svg>
