<svg width="25" height="25" viewBox="0 0 25 25" fill="none" xmlns="http://www.w3.org/2000/svg">
<path d="M24.4531 0.359863V24.3599H0.453125V0.359863H24.4531Z" fill="white" fill-opacity="0.01"/>
<path d="M17.1964 11.6295C17.1103 11.5882 17.0228 11.5484 16.9341 11.5104C16.7797 8.66593 15.2255 7.03747 12.6157 7.0208C12.6038 7.02073 12.5921 7.02073 12.5803 7.02073C11.0193 7.02073 9.72099 7.68704 8.92192 8.89952L10.3572 9.88411C10.9542 8.97844 11.891 8.78536 12.5809 8.78536C12.5889 8.78536 12.5969 8.78536 12.6048 8.78544C13.4641 8.79092 14.1125 9.04076 14.5322 9.52799C14.8376 9.88271 15.0419 10.3729 15.1431 10.9915C14.3812 10.862 13.5572 10.8222 12.6764 10.8727C10.1951 11.0156 8.59995 12.4628 8.70709 14.4736C8.76145 15.4936 9.2696 16.3711 10.1379 16.9443C10.872 17.4289 11.8174 17.6659 12.8001 17.6123C14.0978 17.5411 15.1158 17.046 15.826 16.1407C16.3654 15.4532 16.7065 14.5623 16.8571 13.4397C17.4756 13.8129 17.9339 14.304 18.187 14.8944C18.6174 15.8981 18.6425 17.5474 17.2968 18.8919C16.1178 20.0699 14.7005 20.5794 12.5585 20.5952C10.1826 20.5776 8.38565 19.8156 7.21735 18.3304C6.12333 16.9397 5.55793 14.9309 5.53684 12.3599C5.55793 9.7888 6.12333 7.78003 7.21735 6.38931C8.38565 4.90412 10.1825 4.14215 12.5585 4.1245C14.9517 4.14229 16.7799 4.90793 17.993 6.40028C18.5878 7.13211 19.0362 8.05245 19.3318 9.12552L21.0138 8.67676C20.6555 7.35593 20.0916 6.21775 19.3243 5.27382C17.7692 3.36056 15.4948 2.38019 12.5644 2.35986H12.5526C9.62813 2.38012 7.37922 3.36422 5.86841 5.28479C4.52399 6.99386 3.8305 9.37192 3.8072 12.3528L3.80713 12.3599L3.8072 12.3669C3.8305 15.3478 4.52399 17.7259 5.86841 19.435C7.37922 21.3555 9.62813 22.3397 12.5526 22.3599H12.5644C15.1644 22.3418 16.9971 21.6611 18.5069 20.1527C20.4822 18.1792 20.4228 15.7056 19.7717 14.1871C19.3046 13.0981 18.4141 12.2136 17.1964 11.6295ZM12.7072 15.8502C11.6197 15.9114 10.4899 15.4233 10.4342 14.3778C10.3929 13.6026 10.9859 12.7376 12.7739 12.6345C12.9787 12.6227 13.1796 12.6169 13.377 12.6169C14.0265 12.6169 14.6341 12.68 15.1865 12.8008C14.9805 15.3739 13.7719 15.7917 12.7072 15.8502Z" fill="black"/>
</svg>
