<svg width="25" height="25" viewBox="0 0 25 25" fill="none" xmlns="http://www.w3.org/2000/svg">
<path d="M24.4531 0.359863V24.3599H0.453125V0.359863H24.4531Z" fill="white" fill-opacity="0.01"/>
<path d="M19.3943 5.88391C18.0828 5.27028 16.6953 4.83427 15.2686 4.5874C15.0909 4.9087 14.8832 5.34084 14.74 5.68463C13.2018 5.45333 11.6776 5.45333 10.1676 5.68463C10.0245 5.34092 9.81218 4.9087 9.63282 4.5874C8.20468 4.83438 6.81605 5.2715 5.50394 5.88711C2.89296 9.83273 2.18514 13.6802 2.53901 17.4733C4.27079 18.7665 5.94905 19.5521 7.59904 20.0662C8.00911 19.5023 8.37159 18.9053 8.68276 18.2813C8.09034 18.0558 7.51923 17.7778 6.97622 17.4508C7.11912 17.3449 7.25865 17.2345 7.39461 17.1198C10.6851 18.6589 14.2603 18.6589 17.5116 17.1198C17.6481 17.2337 17.7876 17.3441 17.9299 17.4508C17.386 17.7787 16.8138 18.0572 16.2202 18.283C16.5331 18.9095 16.895 19.5071 17.3039 20.0678C18.9555 19.5538 20.6353 18.7682 22.3671 17.4733C22.7823 13.0762 21.6578 9.26404 19.3943 5.88391ZM9.13108 15.1406C8.14329 15.1406 7.33321 14.2185 7.33321 13.0955C7.33321 11.9726 8.12602 11.0489 9.13108 11.0489C10.1362 11.0489 10.9462 11.971 10.9289 13.0955C10.9305 14.2185 10.1362 15.1406 9.13108 15.1406ZM15.775 15.1406C14.7872 15.1406 13.9772 14.2185 13.9772 13.0955C13.9772 11.9726 14.77 11.0489 15.775 11.0489C16.7801 11.0489 17.5901 11.971 17.5729 13.0955C17.5729 14.2185 16.7801 15.1406 15.775 15.1406Z" fill="#5865F2"/>
</svg>
