<svg width="25" height="25" viewBox="0 0 25 25" fill="none" xmlns="http://www.w3.org/2000/svg">
<path d="M24.4531 0.359863V24.3599H0.453125V0.359863H24.4531Z" fill="white" fill-opacity="0.01"/>
<path d="M18.79 18.697H16.1229V14.5202C16.1229 13.5242 16.1052 12.2421 14.7358 12.2421C13.3467 12.2421 13.1342 13.3273 13.1342 14.4477V18.6967H10.4672V10.1076H13.0275V11.2814H13.0634C13.3196 10.8433 13.6899 10.4829 14.1347 10.2385C14.5796 9.99419 15.0824 9.87509 15.5896 9.89391C18.2927 9.89391 18.7911 11.672 18.7911 13.9851L18.79 18.697ZM7.45784 8.93358C6.60305 8.93372 5.90998 8.24086 5.90984 7.38607C5.9097 6.53128 6.60249 5.83821 7.45728 5.83807C8.31207 5.83786 9.00514 6.53072 9.00528 7.38551C9.00536 7.796 8.84237 8.1897 8.55217 8.48002C8.26197 8.77034 7.86833 8.93349 7.45784 8.93358ZM8.79139 18.697H6.12155V10.1076H8.79132V18.697L8.79139 18.697ZM20.1196 3.36117H4.7814C4.05648 3.35302 3.46198 3.93373 3.45312 4.65865V20.0608C3.4617 20.7861 4.05612 21.3674 4.78133 21.3598H20.1196C20.8463 21.3688 21.4431 20.7875 21.4531 20.0608V4.65745C21.4428 3.93113 20.846 3.35049 20.1196 3.35998" fill="#0A66C2"/>
</svg>
