<svg width="25" height="25" viewBox="0 0 25 25" fill="none" xmlns="http://www.w3.org/2000/svg">
<path d="M24.4531 0.359863V24.3599H0.453125V0.359863H24.4531Z" fill="white" fill-opacity="0.01"/>
<rect x="2.45312" y="2.35986" width="20" height="20" rx="4.3" fill="url(#paint0_radial_93_1451)"/>
<rect x="2.45312" y="2.35986" width="20" height="20" rx="4.3" fill="url(#paint1_radial_93_1451)"/>
<path d="M17.4534 8.43108C17.4534 9.02282 16.9737 9.50251 16.382 9.50251C15.7902 9.50251 15.3105 9.02282 15.3105 8.43108C15.3105 7.83935 15.7902 7.35965 16.382 7.35965C16.9737 7.35965 17.4534 7.83935 17.4534 8.43108Z" fill="white"/>
<path fill-rule="evenodd" clip-rule="evenodd" d="M12.4534 15.9311C14.4258 15.9311 16.0248 14.3321 16.0248 12.3597C16.0248 10.3872 14.4258 8.78823 12.4534 8.78823C10.481 8.78823 8.88198 10.3872 8.88198 12.3597C8.88198 14.3321 10.481 15.9311 12.4534 15.9311ZM12.4534 14.5025C13.6369 14.5025 14.5963 13.5431 14.5963 12.3597C14.5963 11.1762 13.6369 10.2168 12.4534 10.2168C11.2699 10.2168 10.3105 11.1762 10.3105 12.3597C10.3105 13.5431 11.2699 14.5025 12.4534 14.5025Z" fill="white"/>
<path fill-rule="evenodd" clip-rule="evenodd" d="M5.31055 12.0739C5.31055 9.67372 5.31055 8.4736 5.77766 7.55684C6.18855 6.75043 6.84418 6.0948 7.65059 5.68391C8.56735 5.2168 9.76747 5.2168 12.1677 5.2168H12.7391C15.1393 5.2168 16.3395 5.2168 17.2562 5.68391C18.0626 6.0948 18.7183 6.75043 19.1291 7.55684C19.5963 8.4736 19.5963 9.67372 19.5963 12.0739V12.6454C19.5963 15.0456 19.5963 16.2457 19.1291 17.1625C18.7183 17.9689 18.0626 18.6245 17.2562 19.0354C16.3395 19.5025 15.1393 19.5025 12.7391 19.5025H12.1677C9.76747 19.5025 8.56735 19.5025 7.65059 19.0354C6.84418 18.6245 6.18855 17.9689 5.77766 17.1625C5.31055 16.2457 5.31055 15.0456 5.31055 12.6454V12.0739ZM12.1677 6.64537H12.7391C13.9628 6.64537 14.7947 6.64648 15.4376 6.69901C16.0639 6.75018 16.3842 6.84294 16.6077 6.95678C17.1453 7.2307 17.5824 7.66779 17.8563 8.2054C17.9701 8.42882 18.0629 8.74911 18.114 9.37542C18.1666 10.0184 18.1677 10.8503 18.1677 12.0739V12.6454C18.1677 13.8691 18.1666 14.7009 18.114 15.3439C18.0629 15.9702 17.9701 16.2905 17.8563 16.5139C17.5824 17.0515 17.1453 17.4886 16.6077 17.7625C16.3842 17.8764 16.0639 17.9691 15.4376 18.0203C14.7947 18.0728 13.9628 18.0739 12.7391 18.0739H12.1677C10.944 18.0739 10.1122 18.0728 9.46917 18.0203C8.84286 17.9691 8.52257 17.8764 8.29915 17.7625C7.76154 17.4886 7.32445 17.0515 7.05053 16.5139C6.93669 16.2905 6.84393 15.9702 6.79276 15.3439C6.74023 14.7009 6.73912 13.8691 6.73912 12.6454V12.0739C6.73912 10.8503 6.74023 10.0184 6.79276 9.37542C6.84393 8.74911 6.93669 8.42882 7.05053 8.2054C7.32445 7.66779 7.76154 7.2307 8.29915 6.95678C8.52257 6.84294 8.84286 6.75018 9.46917 6.69901C10.1122 6.64648 10.944 6.64537 12.1677 6.64537Z" fill="white"/>
<defs>
<radialGradient id="paint0_radial_93_1451" cx="0" cy="0" r="1" gradientUnits="userSpaceOnUse" gradientTransform="translate(7.76565 23.9003) rotate(-90) scale(19.8215 18.4355)">
<stop stop-color="#FFDD55"/>
<stop offset="0.1" stop-color="#FFDD55"/>
<stop offset="0.5" stop-color="#FF543E"/>
<stop offset="1" stop-color="#C837AB"/>
</radialGradient>
<radialGradient id="paint1_radial_93_1451" cx="0" cy="0" r="1" gradientUnits="userSpaceOnUse" gradientTransform="translate(-0.896981 3.80063) rotate(78.6806) scale(8.86028 36.5225)">
<stop stop-color="#3771C8"/>
<stop offset="0.128" stop-color="#3771C8"/>
<stop offset="1" stop-color="#6600FF" stop-opacity="0"/>
</radialGradient>
</defs>
</svg>
