<svg width="25" height="25" viewBox="0 0 25 25" fill="none" xmlns="http://www.w3.org/2000/svg">
<path d="M24.4531 0.359863V24.3599H0.453125V0.359863H24.4531Z" fill="white" fill-opacity="0.01"/>
<path d="M21.3131 16.4488C21.2315 16.1769 20.8372 15.9865 20.8372 15.9865C20.8019 15.9648 20.7665 15.9485 20.7393 15.9348C20.084 15.6194 19.5048 15.2387 19.0181 14.8064C18.6265 14.4583 18.2893 14.0776 18.0201 13.6698C17.6911 13.1749 17.5361 12.7588 17.4709 12.5358C17.4328 12.389 17.441 12.3319 17.4709 12.2558C17.4981 12.1932 17.5715 12.1307 17.6095 12.1035C17.8298 11.9485 18.186 11.7174 18.4035 11.576C18.5912 11.4536 18.7543 11.3476 18.8495 11.2823C19.1567 11.0675 19.3662 10.8499 19.4912 10.6134C19.6516 10.3088 19.6707 9.97161 19.5456 9.64261C19.377 9.19667 18.961 8.93019 18.4334 8.93019C18.3165 8.93019 18.1942 8.94377 18.0745 8.96825C17.7727 9.03351 17.4844 9.1423 17.2452 9.23472C17.2289 9.24288 17.2098 9.2293 17.2098 9.21025C17.2343 8.61477 17.2642 7.8153 17.199 7.05393C17.1391 6.36597 16.9977 5.78678 16.7666 5.28101C16.5327 4.77252 16.2336 4.39727 15.9943 4.12807C15.7686 3.86975 15.3744 3.48906 14.7761 3.14644C13.9359 2.66514 12.9787 2.42041 11.9319 2.42041C10.8877 2.42041 9.93322 2.66514 9.09027 3.14372C8.45943 3.50537 8.05427 3.91325 7.86938 4.12535C7.63278 4.39727 7.33095 4.77252 7.0971 5.27829C6.86597 5.78406 6.72457 6.36325 6.66475 7.05121C6.59948 7.81261 6.62668 8.54951 6.65387 9.20756C6.65387 9.22656 6.63483 9.24019 6.61852 9.23204C6.37923 9.13956 6.09099 9.03077 5.78916 8.96551C5.66951 8.93835 5.54987 8.92746 5.43022 8.92746C4.9027 8.92746 4.48666 9.19393 4.31807 9.63988C4.19299 9.97161 4.21202 10.3061 4.37246 10.6107C4.49754 10.8472 4.70692 11.0648 5.01419 11.2796C5.10936 11.3448 5.27251 11.4509 5.46014 11.5732C5.67496 11.7119 6.02029 11.9349 6.24055 12.0926C6.26774 12.1117 6.36019 12.1824 6.3901 12.2558C6.42273 12.3346 6.42817 12.3917 6.38739 12.5467C6.3194 12.7724 6.16441 13.183 5.84082 13.6698C5.57162 14.0776 5.23445 14.4583 4.84288 14.8064C4.35342 15.2387 3.77423 15.6194 3.12162 15.9348C3.09171 15.9485 3.05365 15.9675 3.01286 15.9919C2.97207 16.0164 2.62129 16.1905 2.54787 16.4488C2.4391 16.8295 2.72734 17.1857 3.02645 17.3787C3.51047 17.6915 4.10053 17.86 4.44316 17.9498C4.53833 17.9742 4.62534 17.9987 4.7042 18.0232C4.75315 18.0395 4.87551 18.0857 4.92989 18.1537C4.99516 18.238 5.00331 18.344 5.02778 18.4637C5.06586 18.6649 5.15015 18.9123 5.3976 19.0837C5.66951 19.2713 6.01758 19.2849 6.45537 19.3012C6.91491 19.3176 7.48595 19.342 8.13854 19.5568C8.44038 19.6575 8.71501 19.826 9.03317 20.0218C9.69664 20.4297 10.5233 20.9382 11.9345 20.9382C13.3459 20.9382 14.1779 20.427 14.8469 20.0191C15.1623 19.826 15.4342 19.6575 15.7306 19.5596C16.3832 19.3447 16.9542 19.323 17.4137 19.3039C17.8515 19.2876 18.1996 19.274 18.4715 19.0864C18.738 18.9042 18.8142 18.6296 18.8495 18.4229C18.8685 18.3223 18.8821 18.2299 18.9392 18.1537C18.9882 18.0885 19.1024 18.0449 19.1567 18.0259C19.2383 18.0015 19.3254 17.977 19.426 17.9498C19.7686 17.8573 20.1955 17.7513 20.7176 17.4549C21.3349 17.1014 21.3784 16.6636 21.3131 16.4488Z" fill="white"/>
<path fill-rule="evenodd" clip-rule="evenodd" d="M21.676 16.0157C21.9779 16.1843 22.2417 16.3855 22.3803 16.7635C22.538 17.185 22.4429 17.6662 22.0622 18.0741L22.0567 18.0796C21.9208 18.2345 21.744 18.3705 21.5211 18.4929C21.0153 18.773 20.5883 18.9062 20.2539 18.9987C20.1913 19.0177 20.0717 19.0612 20.0173 19.1074C19.9412 19.1727 19.9095 19.2565 19.8699 19.361C19.8402 19.4394 19.8061 19.5296 19.7454 19.6322C19.6149 19.8552 19.4544 20.0021 19.3239 20.0918C18.913 20.3757 18.4537 20.3934 17.9647 20.4123L17.9562 20.4127C17.5102 20.429 17.0072 20.448 16.4334 20.6383C16.2125 20.7111 15.9791 20.8535 15.7095 21.0179C15.6971 21.0255 15.6847 21.0331 15.672 21.0408C14.9814 21.465 14.0324 22.0469 12.4552 22.0469C10.8803 22.0469 9.93986 21.4693 9.24944 21.0453L9.24655 21.0435C8.96107 20.8668 8.7136 20.7145 8.47434 20.6357C7.89786 20.4453 7.39479 20.4262 6.95156 20.4099L6.9431 20.4096C6.45409 20.3907 5.99475 20.373 5.5838 20.0891C5.46959 20.0129 5.33364 19.8905 5.21399 19.7138C5.11668 19.5739 5.0723 19.4554 5.03505 19.3561C4.9963 19.2527 4.96526 19.1699 4.8904 19.1047C4.83058 19.0531 4.69463 19.0095 4.63752 18.9932C4.30578 18.9008 3.88158 18.7675 3.38669 18.4929C3.17731 18.376 3.00872 18.2509 2.87548 18.1068C2.47032 17.6907 2.36427 17.1985 2.5247 16.7635C2.70575 16.2737 3.09681 16.0772 3.50679 15.8712C3.5771 15.8359 3.64797 15.8002 3.71843 15.7628C4.62664 15.2707 5.33907 14.6534 5.83669 13.9247C6.00256 13.6799 6.1222 13.4569 6.20378 13.2748C6.25 13.1415 6.25 13.0708 6.21738 13.0028C6.19018 12.9457 6.10589 12.8832 6.08141 12.8669C5.9571 12.784 5.8293 12.7011 5.72745 12.6351C5.70231 12.6188 5.67875 12.6035 5.65722 12.5895C5.456 12.459 5.29829 12.3557 5.19496 12.285C4.80883 12.0158 4.53963 11.7302 4.37104 11.4094C4.13447 10.958 4.10456 10.4413 4.28674 9.95734C4.54235 9.28565 5.17864 8.86692 5.94817 8.86692C6.10861 8.86692 6.27176 8.88323 6.43219 8.9186C6.45259 8.92402 6.47366 8.92876 6.49474 8.93355C6.51581 8.93828 6.53688 8.94307 6.55728 8.94849C6.54912 8.49165 6.55999 8.00492 6.60078 7.52635C6.7449 5.8486 7.33225 4.96758 7.94681 4.26603C8.20239 3.97507 8.6456 3.54544 9.31728 3.16203C10.25 2.62906 11.3023 2.35986 12.4498 2.35986C13.6 2.35986 14.6551 2.62906 15.585 3.16203C16.2512 3.54544 16.6972 3.97235 16.9528 4.26603C17.5673 4.96758 18.1547 5.84588 18.2988 7.52635C18.3396 8.00223 18.3504 8.49165 18.3423 8.94849C18.3831 8.9376 18.4239 8.92676 18.4674 8.9186C18.6305 8.88597 18.791 8.86692 18.9514 8.86692C19.7237 8.86692 20.3572 9.28565 20.6128 9.95734C20.795 10.4441 20.7651 10.958 20.5285 11.4094C20.36 11.7302 20.0908 12.0158 19.7046 12.285C19.615 12.3479 19.4779 12.4368 19.3068 12.5478C19.2858 12.5613 19.2643 12.5753 19.2423 12.5895C19.1959 12.6201 19.1394 12.6569 19.0778 12.6971C18.9917 12.7532 18.8953 12.8159 18.8019 12.8778C18.7692 12.9022 18.7067 12.9539 18.6822 13.0028C18.6523 13.0654 18.6495 13.1361 18.6931 13.2611C18.7774 13.4461 18.897 13.6744 19.0683 13.9247C19.5768 14.6697 20.3083 15.2978 21.2491 15.7954C21.3416 15.8417 21.434 15.8879 21.5238 15.9341C21.5673 15.9559 21.6189 15.9831 21.676 16.0157ZM19.8101 17.9592C20.1323 17.873 20.5135 17.771 20.98 17.514C21.5238 17.2122 21.2165 17.0272 21.0289 16.9402C17.9344 15.442 17.4395 13.1279 17.4178 12.9539C17.4169 12.9459 17.4159 12.9379 17.415 12.93C17.3914 12.7345 17.3723 12.5759 17.5919 12.372C17.7405 12.2343 18.2361 11.9133 18.6262 11.6606C18.814 11.539 18.9773 11.4332 19.0657 11.3713C19.517 11.0586 19.7155 10.7432 19.5687 10.3571C19.4681 10.0905 19.2179 9.98997 18.9542 9.98997C18.8726 9.98997 18.791 10.0009 18.7094 10.0172C18.4149 10.0803 18.1251 10.1935 17.8803 10.2891C17.7139 10.3542 17.5682 10.4111 17.4559 10.4387C17.4178 10.4468 17.3824 10.4522 17.3525 10.4522C17.2057 10.4522 17.1513 10.387 17.1622 10.2075C17.1632 10.1924 17.1642 10.177 17.1652 10.1612C17.2015 9.60776 17.2687 8.58397 17.1867 7.62697C17.0698 6.27281 16.632 5.60117 16.1126 5.00566C15.8651 4.72015 14.6986 3.48291 12.4525 3.48291C10.2119 3.48291 9.04265 4.72015 8.79249 5.00566C8.27313 5.59845 7.83534 6.27281 7.71844 7.62697C7.64002 8.54249 7.70039 9.51913 7.73549 10.0866C7.73813 10.1293 7.7406 10.1697 7.74291 10.2075C7.75376 10.3788 7.69938 10.4522 7.55255 10.4522C7.51991 10.4522 7.48728 10.4468 7.44921 10.4387C7.33371 10.4114 7.18285 10.3527 7.01036 10.2855C6.76864 10.1913 6.48447 10.0807 6.19566 10.0172C6.11681 10.0009 6.03251 9.98997 5.95094 9.98997C5.68717 9.98997 5.437 10.0905 5.33639 10.3571C5.18956 10.7432 5.38806 11.0559 5.83945 11.3713C5.92171 11.4281 6.06893 11.5234 6.24036 11.6344C6.63561 11.8904 7.15963 12.2298 7.31326 12.372C7.53755 12.5752 7.51602 12.7374 7.4897 12.9357C7.4889 12.9417 7.48809 12.9478 7.48728 12.9539C7.46553 13.1279 6.97336 15.442 3.87618 16.9402C3.694 17.0272 3.38673 17.2122 3.93057 17.514C4.39786 17.7729 4.78045 17.8747 5.10329 17.9605C5.37035 18.0316 5.59652 18.0918 5.79594 18.221C5.99895 18.3519 6.02767 18.5648 6.05431 18.7624C6.07693 18.93 6.09805 19.0866 6.22286 19.1727C6.36787 19.2729 6.63658 19.2832 6.99862 19.297C7.47162 19.315 8.10391 19.3391 8.82786 19.5779C9.18834 19.6971 9.50181 19.8897 9.83202 20.0926C10.4807 20.4911 11.1939 20.9293 12.4553 20.9293C13.7149 20.9293 14.4356 20.4874 15.0863 20.0883C15.4161 19.8861 15.7278 19.6949 16.0827 19.5779C16.8066 19.3391 17.4389 19.315 17.9119 19.297C18.274 19.2832 18.5427 19.2729 18.6877 19.1727C18.8141 19.0851 18.8351 18.9279 18.8575 18.76C18.8838 18.5631 18.912 18.3517 19.1146 18.221C19.3157 18.0914 19.5425 18.0308 19.8101 17.9592Z" fill="black"/>
</svg>
