<svg width="25" height="25" viewBox="0 0 25 25" fill="none" xmlns="http://www.w3.org/2000/svg">
<path d="M24.4531 0.359863V24.3599H0.453125V0.359863H24.4531Z" fill="white" fill-opacity="0.01"/>
<path d="M12.4531 2.35986C17.9759 2.35986 22.4531 6.83709 22.4531 12.3599C22.4531 17.472 18.6166 21.688 13.665 22.2876V15.4155H16.3691L16.9297 12.3599H13.6611V11.2788C13.6612 9.66291 14.2937 9.04346 15.9336 9.04346C16.4409 9.04346 16.8528 9.05476 17.0889 9.07861V6.31104C16.6404 6.18717 15.5491 6.06299 14.917 6.06299C11.577 6.063 10.0371 7.63958 10.0371 11.0435V12.3599H7.97363V15.4155H10.0371V22.0659L9.63281 21.9565C5.48295 20.739 2.45312 16.9034 2.45312 12.3599C2.45312 6.83709 6.93035 2.35986 12.4531 2.35986Z" fill="#0866FF"/>
</svg>
