<svg width="25" height="25" viewBox="0 0 25 25" fill="none" xmlns="http://www.w3.org/2000/svg">
<path d="M24.4531 0.359863V24.3599H0.453125V0.359863H24.4531Z" fill="white" fill-opacity="0.01"/>
<path d="M12.4531 2.35986C17.9781 2.35986 22.4531 6.83486 22.4531 12.3599C22.4526 14.4551 21.795 16.4974 20.5729 18.1994C19.3508 19.9013 17.6258 21.1772 15.6406 21.8474C15.1406 21.9474 14.9531 21.6349 14.9531 21.3724C14.9531 21.0349 14.9656 19.9599 14.9656 18.6224C14.9656 17.6849 14.6531 17.0849 14.2906 16.7724C16.5156 16.5224 18.8531 15.6724 18.8531 11.8349C18.8531 10.7349 18.4656 9.84736 17.8281 9.14736C17.9281 8.89736 18.2781 7.87236 17.7281 6.49736C17.7281 6.49736 16.8906 6.22236 14.9781 7.52236C14.1781 7.29736 13.3281 7.18486 12.4781 7.18486C11.6281 7.18486 10.7781 7.29736 9.97813 7.52236C8.06563 6.23486 7.22813 6.49736 7.22813 6.49736C6.67813 7.87236 7.02813 8.89736 7.12813 9.14736C6.49063 9.84736 6.10313 10.7474 6.10313 11.8349C6.10313 15.6599 8.42813 16.5224 10.6531 16.7724C10.3656 17.0224 10.1031 17.4599 10.0156 18.1099C9.44063 18.3724 8.00313 18.7974 7.10313 17.2849C6.91563 16.9849 6.35313 16.2474 5.56563 16.2599C4.72813 16.2724 5.22813 16.7349 5.57813 16.9224C6.00313 17.1599 6.49063 18.0474 6.60313 18.3349C6.80313 18.8974 7.45313 19.9724 9.96563 19.5099C9.96563 20.3474 9.97813 21.1349 9.97813 21.3724C9.97813 21.6349 9.79063 21.9349 9.29063 21.8474C7.29892 21.1844 5.56654 19.9111 4.33924 18.2082C3.11193 16.5052 2.45202 14.459 2.45313 12.3599C2.45313 6.83486 6.92813 2.35986 12.4531 2.35986Z" fill="#1F2328"/>
</svg>
