<svg width="25" height="25" viewBox="0 0 25 25" fill="none" xmlns="http://www.w3.org/2000/svg">
<path d="M24.4531 0.359863V24.3599H0.453125V0.359863H24.4531Z" fill="white" fill-opacity="0.01"/>
<path d="M8.74479 21.6246C8.61979 20.4926 8.71146 19.4022 8.95312 18.3534L9.95312 14.05C9.77257 13.4932 9.67705 12.9123 9.66979 12.327C9.66979 10.9286 10.3365 9.92978 11.4031 9.92978C12.1365 9.92978 12.6781 10.4458 12.6781 11.428C12.6781 11.7443 12.617 12.0995 12.4948 12.4935L12.0531 13.9335C11.9698 14.2109 11.9281 14.4634 11.9281 14.6909C11.9281 15.6898 12.6948 16.2558 13.6698 16.2558C15.4031 16.2558 16.6448 14.4579 16.6448 12.1272C16.6448 9.53024 14.9448 7.87382 12.4281 7.87382C9.62812 7.87382 7.85312 9.69671 7.85312 12.2271C7.85312 13.2509 8.16979 14.1998 8.77812 14.8491C8.57812 15.182 8.36146 15.2486 8.04479 15.2486C7.04479 15.2486 6.09479 13.8336 6.09479 11.9191C6.09479 8.59798 8.76146 5.95936 12.4948 5.95936C16.4115 5.95936 18.8781 8.68954 18.8781 12.0606C18.8781 15.4484 16.4781 17.9955 13.8948 17.9955C13.4025 18.0042 12.9149 17.8982 12.4708 17.6858C12.0267 17.4734 11.6383 17.1605 11.3365 16.7719L10.8281 18.8528C10.5531 19.9182 10.1365 20.9337 9.47812 21.9076C10.9759 22.3738 12.5625 22.4814 14.1097 22.2219C15.6568 21.9623 17.1211 21.3427 18.3842 20.4133C19.6473 19.4839 20.6738 18.2707 21.3806 16.8717C22.0875 15.4728 22.4549 13.9273 22.4531 12.3603C22.4553 10.5456 21.9625 8.76455 21.0276 7.20852C20.0927 5.65249 18.7511 4.38026 17.1468 3.52849C15.5426 2.67672 13.7363 2.27758 11.922 2.37396C10.1078 2.47034 8.35408 3.05859 6.84932 4.07553C5.34457 5.09247 4.14561 6.49966 3.38123 8.14596C2.61686 9.79226 2.31595 11.6155 2.51082 13.4197C2.7057 15.224 3.389 16.9411 4.48733 18.3867C5.58566 19.8322 7.05751 20.9516 8.74479 21.6246Z" fill="#E60023"/>
</svg>
