<svg width="25" height="25" viewBox="0 0 25 25" fill="none" xmlns="http://www.w3.org/2000/svg">
<path d="M24.4531 0.359863V24.3599H0.453125V0.359863H24.4531Z" fill="white" fill-opacity="0.01"/>
<path d="M16.7379 9.56116C18.0261 10.4815 19.6041 11.023 21.3085 11.023V7.74509C20.9859 7.74516 20.6642 7.71151 20.3486 7.64468V10.2249C18.6444 10.2249 17.0665 9.68344 15.7781 8.76316V15.4525C15.7781 18.799 13.0639 21.5115 9.71607 21.5115C8.46689 21.5115 7.30579 21.1341 6.34131 20.4867C7.44214 21.6117 8.97731 22.3096 10.6757 22.3096C14.0238 22.3096 16.7381 19.597 16.7381 16.2505V9.56116H16.7379ZM17.9221 6.25413C17.2637 5.5353 16.8314 4.60634 16.7379 3.5793V3.15771H15.8283C16.0573 4.46303 16.8383 5.5782 17.9221 6.25413ZM8.45883 17.9188C8.09103 17.4369 7.89221 16.8472 7.8931 16.2409C7.8931 14.7104 9.13455 13.4694 10.6662 13.4694C10.9516 13.4693 11.2353 13.5131 11.5074 13.5993V10.2481C11.1894 10.2045 10.8686 10.186 10.5479 10.1928V12.8012C10.2757 12.715 9.99188 12.6712 9.70634 12.6714C8.17476 12.6714 6.93338 13.9123 6.93338 15.443C6.93338 16.5253 7.55386 17.4623 8.45883 17.9188Z" fill="#FF004F"/>
<path d="M15.7778 8.76309C17.0663 9.68337 18.644 10.2248 20.3483 10.2248V7.64461C19.397 7.44206 18.5549 6.94523 17.9217 6.25413C16.8379 5.57813 16.057 4.46296 15.828 3.15771H13.4389V16.2503C13.4334 17.7767 12.1941 19.0125 10.6658 19.0125C9.76521 19.0125 8.96507 18.5835 8.45838 17.9188C7.55356 17.4623 6.93301 16.5252 6.93301 15.443C6.93301 13.9125 8.17438 12.6715 9.70597 12.6715C9.99942 12.6715 10.2822 12.7172 10.5476 12.8013V10.1929C7.25845 10.2608 4.61328 12.9469 4.61328 16.2504C4.61328 17.8995 5.27197 19.3945 6.34107 20.4868C7.30556 21.1341 8.46659 21.5116 9.71583 21.5116C13.0638 21.5116 15.7779 18.7989 15.7779 15.4525V8.76316L15.7778 8.76309Z" fill="black"/>
<path d="M20.3481 7.64469V6.94717C19.4903 6.94847 18.6494 6.70836 17.9215 6.25428C18.5658 6.95925 19.4142 7.4454 20.3481 7.64483V7.64469ZM15.8278 3.15779C15.806 3.03308 15.7892 2.90753 15.7776 2.78145V2.35986H12.4787V15.4526C12.4735 16.9788 11.2341 18.2147 9.70573 18.2147C9.27244 18.2153 8.84507 18.1141 8.45815 17.919C8.96484 18.5837 9.76498 19.0126 10.6655 19.0126C12.1938 19.0126 13.4333 17.7769 13.4386 16.2506V3.15786H15.8278V3.15779ZM10.5475 10.193V9.45028C10.2719 9.4126 9.99396 9.39375 9.71573 9.39386C6.36746 9.39386 3.65332 12.1066 3.65332 15.4526C3.65332 17.5505 4.72001 19.3993 6.34098 20.4868C5.27187 19.3946 4.61318 17.8995 4.61318 16.2505C4.61318 12.947 7.25829 10.2609 10.5475 10.193Z" fill="#00F2EA"/>
</svg>
