<svg width="21" height="21" viewBox="0 0 21 21" fill="none" xmlns="http://www.w3.org/2000/svg">
<path d="M12.9533 2.02637H5.45329C5.01126 2.02637 4.58734 2.20196 4.27478 2.51452C3.96222 2.82708 3.78662 3.25101 3.78662 3.69303V17.0264C3.78662 17.4684 3.96222 17.8923 4.27478 18.2049C4.58734 18.5174 5.01126 18.693 5.45329 18.693H15.4533C15.8953 18.693 16.3192 18.5174 16.6318 18.2049C16.9444 17.8923 17.12 17.4684 17.12 17.0264V6.19303L12.9533 2.02637Z" stroke="#6A64F6" stroke-width="2" stroke-linecap="round" stroke-linejoin="round"/>
<path d="M12.1196 2.02637V5.3597C12.1196 5.80173 12.2952 6.22565 12.6078 6.53821C12.9203 6.85077 13.3443 7.02637 13.7863 7.02637H17.1196" stroke="#6A64F6" stroke-width="2" stroke-linecap="round" stroke-linejoin="round"/>
</svg>
