<svg width="21" height="21" viewBox="0 0 21 21" fill="none" xmlns="http://www.w3.org/2000/svg">
<path d="M8.78662 11.1933C9.1445 11.6718 9.60109 12.0676 10.1254 12.3541C10.6497 12.6406 11.2295 12.8109 11.8255 12.8536C12.4214 12.8963 13.0196 12.8103 13.5794 12.6015C14.1392 12.3927 14.6476 12.0659 15.07 11.6433L17.57 9.14333C18.3289 8.35749 18.7489 7.30498 18.7394 6.21249C18.7299 5.12001 18.2917 4.07495 17.5192 3.30242C16.7467 2.52989 15.7016 2.09168 14.6091 2.08219C13.5166 2.0727 12.4641 2.49267 11.6783 3.25166L10.245 4.67666" stroke="#6A64F6" stroke-width="2" stroke-linecap="round" stroke-linejoin="round"/>
<path d="M12.12 9.52639C11.7621 9.04795 11.3055 8.65207 10.7812 8.36561C10.2568 8.07914 9.67704 7.90879 9.08108 7.86611C8.48513 7.82343 7.88697 7.90942 7.32717 8.11824C6.76737 8.32706 6.25903 8.65383 5.83663 9.07639L3.33662 11.5764C2.57763 12.3622 2.15766 13.4147 2.16715 14.5072C2.17664 15.5997 2.61485 16.6448 3.38738 17.4173C4.15991 18.1898 5.20497 18.628 6.29745 18.6375C7.38994 18.647 8.44245 18.2271 9.22829 17.4681L10.6533 16.0431" stroke="#6A64F6" stroke-width="2" stroke-linecap="round" stroke-linejoin="round"/>
</svg>
