<svg width="29" height="29" viewBox="0 0 29 29" fill="none" xmlns="http://www.w3.org/2000/svg">
<rect y="0.284668" width="28.3022" height="28.3022" rx="14.1511" fill="black" fill-opacity="0.08"/>
<path d="M21.2271 7.35986H8.84491C7.86936 7.35986 7.07602 8.15321 7.07602 9.12875V13.551H8.84491V10.8976L14.5054 15.143C14.6585 15.2577 14.8447 15.3196 15.036 15.3196C15.2273 15.3196 15.4135 15.2577 15.5667 15.143L21.2271 10.8976V18.8576H14.1516V20.6265H21.2271C22.2027 20.6265 22.996 19.8332 22.996 18.8576V9.12875C22.996 8.15321 22.2027 7.35986 21.2271 7.35986ZM15.036 13.3299L9.43395 9.12875H20.6381L15.036 13.3299Z" fill="#6A64F6"/>
<path d="M5.30713 14.4354H11.4982V16.2043H5.30713V14.4354ZM7.07602 17.0888H12.3827V18.8576H7.07602V17.0888ZM9.72935 19.7421H13.2671V21.511H9.72935V19.7421Z" fill="#6A64F6"/>
</svg>
