<svg width="29" height="29" viewBox="0 0 29 29" fill="none" xmlns="http://www.w3.org/2000/svg">
<rect y="0.128906" width="28.3022" height="28.3022" rx="14.1511" fill="black" fill-opacity="0.08"/>
<path d="M19.1992 14.5398C19.1171 14.4576 19.0196 14.3924 18.9123 14.3479C18.805 14.3034 18.69 14.2805 18.5738 14.2805C18.4577 14.2805 18.3427 14.3034 18.2354 14.3479C18.1281 14.3924 18.0306 14.4576 17.9485 14.5398L16.5387 15.9496C15.8851 15.755 14.6655 15.3128 13.8925 14.5398C13.1195 13.7668 12.6773 12.5471 12.4827 11.8935L13.8925 10.4837C13.9747 10.4017 14.0399 10.3042 14.0844 10.1969C14.1289 10.0896 14.1518 9.97459 14.1518 9.85844C14.1518 9.74228 14.1289 9.62726 14.0844 9.51996C14.0399 9.41267 13.9747 9.3152 13.8925 9.23313L10.3547 5.69536C10.2726 5.61315 10.1752 5.54793 10.0679 5.50344C9.96058 5.45894 9.84556 5.43604 9.7294 5.43604C9.61325 5.43604 9.49823 5.45894 9.39093 5.50344C9.28364 5.54793 9.18617 5.61315 9.1041 5.69536L6.70549 8.09397C6.3694 8.43006 6.18013 8.89174 6.1872 9.36315C6.20755 10.6226 6.54098 14.9971 9.98855 18.4446C13.4361 21.8922 17.8106 22.2247 19.0709 22.246H19.0957C19.5627 22.246 20.004 22.062 20.3383 21.7277L22.7369 19.3291C22.8191 19.247 22.8844 19.1495 22.9288 19.0422C22.9733 18.9349 22.9962 18.8199 22.9962 18.7038C22.9962 18.5876 22.9733 18.4726 22.9288 18.3653C22.8844 18.258 22.8191 18.1605 22.7369 18.0785L19.1992 14.5398ZM19.0868 20.4762C17.983 20.4576 14.2065 20.1613 11.2392 17.1931C8.26211 14.2161 7.97378 10.4262 7.95609 9.34457L9.7294 7.57126L12.0166 9.85844L10.873 11.002C10.769 11.1059 10.6926 11.234 10.6506 11.3749C10.6086 11.5157 10.6023 11.6648 10.6324 11.8086C10.6536 11.9103 11.1728 14.3222 12.641 15.7904C14.1092 17.2586 16.5211 17.7778 16.6228 17.799C16.7665 17.8299 16.9158 17.8242 17.0567 17.7823C17.1977 17.7404 17.3258 17.6637 17.4294 17.5593L18.5738 16.4157L20.861 18.7029L19.0868 20.4762Z" fill="#6A64F6"/>
</svg>
