<svg width="21" height="21" viewBox="0 0 21 21" fill="none" xmlns="http://www.w3.org/2000/svg">
<path d="M4.62126 13.0491C5.35051 13.045 6.0519 12.7686 6.58793 12.2741L11.8046 15.2575C11.7381 15.4877 11.7045 15.7262 11.7046 15.9658C11.6992 16.6421 11.9271 17.2996 12.3497 17.8275C12.7724 18.3555 13.3641 18.7217 14.0252 18.8645C14.6862 19.0072 15.3763 18.9179 15.9792 18.6114C16.5821 18.3049 17.0609 17.8001 17.3352 17.1819C17.6094 16.5637 17.6622 15.8698 17.4848 15.2172C17.3073 14.5646 16.9104 13.9931 16.3609 13.5989C15.8113 13.2046 15.1428 13.0118 14.4677 13.0528C13.7926 13.0939 13.1523 13.3663 12.6546 13.8241L7.43793 10.8408C7.50088 10.6354 7.53455 10.4222 7.53793 10.2075L12.6629 7.27414C13.158 7.72151 13.7918 7.98504 14.4581 8.02056C15.1244 8.05607 15.7826 7.86139 16.3224 7.46918C16.8622 7.07697 17.2507 6.51108 17.4228 5.86641C17.5949 5.22174 17.5401 4.5375 17.2676 3.92845C16.995 3.31941 16.5214 2.82259 15.926 2.52133C15.3306 2.22007 14.6498 2.13268 13.9977 2.27383C13.3455 2.41497 12.7617 2.77607 12.3442 3.29655C11.9267 3.81703 11.7009 4.46524 11.7046 5.13247C11.7074 5.3719 11.741 5.60996 11.8046 5.84081L7.06293 8.54914C6.78818 8.1241 6.40757 7.77787 5.9585 7.54448C5.50942 7.31108 5.00735 7.19856 4.50162 7.21796C3.99588 7.23737 3.50391 7.38803 3.07404 7.65515C2.64417 7.92227 2.2912 8.29665 2.04984 8.74149C1.80847 9.18633 1.68701 9.68632 1.69739 10.1923C1.70777 10.6983 1.84964 11.1929 2.10905 11.6275C2.36846 12.062 2.73649 12.4216 3.17695 12.6709C3.61741 12.9201 4.11516 13.0505 4.62126 13.0491ZM14.6213 14.7158C14.8685 14.7158 15.1102 14.7891 15.3157 14.9265C15.5213 15.0638 15.6815 15.259 15.7761 15.4875C15.8707 15.7159 15.8955 15.9672 15.8472 16.2097C15.799 16.4521 15.68 16.6749 15.5051 16.8497C15.3303 17.0245 15.1076 17.1436 14.8651 17.1918C14.6226 17.24 14.3713 17.2153 14.1429 17.1207C13.9145 17.026 13.7193 16.8658 13.5819 16.6603C13.4446 16.4547 13.3713 16.213 13.3713 15.9658C13.3713 15.6343 13.503 15.3163 13.7374 15.0819C13.9718 14.8475 14.2897 14.7158 14.6213 14.7158ZM14.6213 3.88247C14.8685 3.88247 15.1102 3.95578 15.3157 4.09314C15.5213 4.23049 15.6815 4.42571 15.7761 4.65412C15.8707 4.88253 15.8955 5.13386 15.8472 5.37634C15.799 5.61881 15.68 5.84154 15.5051 6.01636C15.3303 6.19117 15.1076 6.31022 14.8651 6.35845C14.6226 6.40669 14.3713 6.38193 14.1429 6.28732C13.9145 6.19271 13.7193 6.0325 13.5819 5.82694C13.4446 5.62137 13.3713 5.3797 13.3713 5.13247C13.3713 4.80095 13.503 4.48301 13.7374 4.24859C13.9718 4.01417 14.2897 3.88247 14.6213 3.88247ZM4.62126 8.88247C4.86849 8.88247 5.11016 8.95578 5.31572 9.09314C5.52128 9.23049 5.6815 9.42571 5.77611 9.65412C5.87072 9.88253 5.89547 10.1339 5.84724 10.3763C5.79901 10.6188 5.67996 10.8415 5.50514 11.0164C5.33033 11.1912 5.1076 11.3102 4.86512 11.3585C4.62265 11.4067 4.37131 11.3819 4.14291 11.2873C3.9145 11.1927 3.71928 11.0325 3.58192 10.8269C3.44457 10.6214 3.37126 10.3797 3.37126 10.1325C3.37126 9.80095 3.50296 9.48301 3.73738 9.24859C3.9718 9.01417 4.28974 8.88247 4.62126 8.88247Z" fill="#6A64F6"/>
</svg>
