<svg width="20" height="21" viewBox="0 0 20 21" fill="none" xmlns="http://www.w3.org/2000/svg">
<path d="M10.0004 7.66634C9.33872 7.67071 8.70537 7.9355 8.23748 8.4034C7.76958 8.8713 7.50478 9.50465 7.50042 10.1663C7.50042 11.5347 8.63208 12.6663 10.0004 12.6663C11.3679 12.6663 12.5004 11.5347 12.5004 10.1663C12.5004 8.79884 11.3679 7.66634 10.0004 7.66634Z" fill="#080721"/>
<path d="M10.0004 4.33301C3.63957 4.33301 1.7279 9.84717 1.7104 9.90301L1.62207 10.1663L1.70957 10.4297C1.7279 10.4855 3.63957 15.9997 10.0004 15.9997C16.3612 15.9997 18.2729 10.4855 18.2904 10.4297L18.3787 10.1663L18.2912 9.90301C18.2729 9.84717 16.3612 4.33301 10.0004 4.33301ZM10.0004 14.333C5.54124 14.333 3.81374 11.128 3.3954 10.1663C3.8154 9.20134 5.54374 5.99967 10.0004 5.99967C14.4596 5.99967 16.1871 9.20467 16.6054 10.1663C16.1854 11.1313 14.4571 14.333 10.0004 14.333Z" fill="#080721"/>
</svg>
