<svg width="21" height="21" viewBox="0 0 21 21" fill="none" xmlns="http://www.w3.org/2000/svg">
<path d="M10.4531 11.1934V17.86" stroke="#6A64F6" stroke-width="2" stroke-linecap="round" stroke-linejoin="round"/>
<path d="M3.78658 12.7759C3.16745 12.1433 2.70038 11.3782 2.42077 10.5384C2.14116 9.69855 2.05633 8.80612 2.17271 7.92867C2.28909 7.05121 2.60362 6.21175 3.09249 5.47386C3.58136 4.73597 4.23173 4.11901 4.99436 3.66971C5.75698 3.22041 6.61185 2.95054 7.49422 2.88057C8.37658 2.81059 9.2633 2.94232 10.0872 3.2658C10.9111 3.58928 11.6506 4.09601 12.2497 4.74761C12.8488 5.39922 13.2917 6.17861 13.5449 7.02675H15.0366C15.8412 7.02666 16.6245 7.28535 17.2707 7.76462C17.917 8.24388 18.392 8.9183 18.6256 9.68826C18.8591 10.4582 18.8388 11.2829 18.5677 12.0404C18.2966 12.7979 17.789 13.4482 17.1199 13.8951" stroke="#6A64F6" stroke-width="2" stroke-linecap="round" stroke-linejoin="round"/>
<path d="M7.11963 14.5267L10.453 11.1934L13.7863 14.5267" stroke="#6A64F6" stroke-width="2" stroke-linecap="round" stroke-linejoin="round"/>
</svg>
