<svg width="32" height="40" viewBox="0 0 32 40" fill="none" xmlns="http://www.w3.org/2000/svg">
<path d="M32 28.2422C32 29.8646 31.6901 31.3867 31.0703 32.8086C30.4505 34.2305 29.6029 35.4792 28.5273 36.5547C27.4701 37.612 26.2305 38.4505 24.8086 39.0703C23.3867 39.6901 21.8646 40 20.2422 40H0.636719V0.789062H20.2422C21.8646 0.789062 23.3867 1.09896 24.8086 1.71875C26.2305 2.33854 27.4701 3.1862 28.5273 4.26172C29.6029 5.31901 30.4505 6.55859 31.0703 7.98047C31.6901 9.40234 32 10.9245 32 12.5469C32 13.276 31.8997 14.0234 31.6992 14.7891C31.4987 15.5547 31.2161 16.293 30.8516 17.0039C30.487 17.7148 30.0495 18.362 29.5391 18.9453C29.0286 19.5286 28.4635 20.0117 27.8438 20.3945C28.4818 20.7409 29.056 21.2148 29.5664 21.8164C30.0768 22.3997 30.5143 23.0469 30.8789 23.7578C31.2435 24.4688 31.5169 25.2161 31.6992 26C31.8997 26.7656 32 27.513 32 28.2422ZM8.48438 32.1523H20.2422C20.7891 32.1523 21.2995 32.0521 21.7734 31.8516C22.2474 31.651 22.6576 31.3776 23.0039 31.0312C23.3685 30.6667 23.651 30.2474 23.8516 29.7734C24.0521 29.2995 24.1523 28.7891 24.1523 28.2422C24.1523 27.6953 24.0521 27.1849 23.8516 26.7109C23.651 26.237 23.3685 25.8268 23.0039 25.4805C22.6576 25.1159 22.2474 24.8333 21.7734 24.6328C21.2995 24.4323 20.7891 24.332 20.2422 24.332H8.48438V32.1523ZM8.48438 16.4844H20.2422C20.7891 16.4844 21.2995 16.3841 21.7734 16.1836C22.2474 15.9831 22.6576 15.7096 23.0039 15.3633C23.3685 14.9987 23.651 14.5794 23.8516 14.1055C24.0521 13.6133 24.1523 13.0938 24.1523 12.5469C24.1523 12 24.0521 11.4896 23.8516 11.0156C23.651 10.5417 23.3685 10.1315 23.0039 9.78516C22.6576 9.42057 22.2474 9.13802 21.7734 8.9375C21.2995 8.73698 20.7891 8.63672 20.2422 8.63672H8.48438V16.4844Z" fill="#6A64F6"/>
</svg>
