<svg width="252" height="41" viewBox="0 0 252 41" fill="none" xmlns="http://www.w3.org/2000/svg">
<path d="M32 28.2422C32 29.8646 31.6901 31.3867 31.0703 32.8086C30.4505 34.2305 29.6029 35.4792 28.5273 36.5547C27.4701 37.612 26.2305 38.4505 24.8086 39.0703C23.3867 39.6901 21.8646 40 20.2422 40H0.636719V0.789062H20.2422C21.8646 0.789062 23.3867 1.09896 24.8086 1.71875C26.2305 2.33854 27.4701 3.1862 28.5273 4.26172C29.6029 5.31901 30.4505 6.55859 31.0703 7.98047C31.6901 9.40234 32 10.9245 32 12.5469C32 13.276 31.8997 14.0234 31.6992 14.7891C31.4987 15.5547 31.2161 16.293 30.8516 17.0039C30.487 17.7148 30.0495 18.362 29.5391 18.9453C29.0286 19.5286 28.4635 20.0117 27.8438 20.3945C28.4818 20.7409 29.056 21.2148 29.5664 21.8164C30.0768 22.3997 30.5143 23.0469 30.8789 23.7578C31.2435 24.4688 31.5169 25.2161 31.6992 26C31.8997 26.7656 32 27.513 32 28.2422ZM8.48438 32.1523H20.2422C20.7891 32.1523 21.2995 32.0521 21.7734 31.8516C22.2474 31.651 22.6576 31.3776 23.0039 31.0312C23.3685 30.6667 23.651 30.2474 23.8516 29.7734C24.0521 29.2995 24.1523 28.7891 24.1523 28.2422C24.1523 27.6953 24.0521 27.1849 23.8516 26.7109C23.651 26.237 23.3685 25.8268 23.0039 25.4805C22.6576 25.1159 22.2474 24.8333 21.7734 24.6328C21.2995 24.4323 20.7891 24.332 20.2422 24.332H8.48438V32.1523ZM8.48438 16.4844H20.2422C20.7891 16.4844 21.2995 16.3841 21.7734 16.1836C22.2474 15.9831 22.6576 15.7096 23.0039 15.3633C23.3685 14.9987 23.651 14.5794 23.8516 14.1055C24.0521 13.6133 24.1523 13.0938 24.1523 12.5469C24.1523 12 24.0521 11.4896 23.8516 11.0156C23.651 10.5417 23.3685 10.1315 23.0039 9.78516C22.6576 9.42057 22.2474 9.13802 21.7734 8.9375C21.2995 8.73698 20.7891 8.63672 20.2422 8.63672H8.48438V16.4844ZM68.8594 24.332C68.8594 26.5013 68.4492 28.543 67.6289 30.457C66.8086 32.3529 65.6875 34.0117 64.2656 35.4336C62.8438 36.8372 61.1758 37.9492 59.2617 38.7695C57.3659 39.5898 55.3333 40 53.1641 40C50.9948 40 48.9531 39.5898 47.0391 38.7695C45.1432 37.9492 43.4844 36.8372 42.0625 35.4336C40.6589 34.0117 39.5469 32.3529 38.7266 30.457C37.9062 28.543 37.4961 26.5013 37.4961 24.332V0.789062H45.3164V24.332C45.3164 25.4076 45.5169 26.4193 45.918 27.3672C46.3372 28.3151 46.9023 29.1445 47.6133 29.8555C48.3242 30.5664 49.1536 31.1315 50.1016 31.5508C51.0677 31.9518 52.0885 32.1523 53.1641 32.1523C54.2396 32.1523 55.2513 31.9518 56.1992 31.5508C57.1654 31.1315 58.0039 30.5664 58.7148 29.8555C59.4258 29.1445 59.9818 28.3151 60.3828 27.3672C60.8021 26.4193 61.0117 25.4076 61.0117 24.332V0.789062H68.8594V24.332ZM73.3711 12.5469C73.3711 10.9245 73.681 9.40234 74.3008 7.98047C74.9206 6.55859 75.7591 5.31901 76.8164 4.26172C77.8919 3.1862 79.1406 2.33854 80.5625 1.71875C81.9844 1.09896 83.5065 0.789062 85.1289 0.789062H103.121V8.63672H85.1289C84.582 8.63672 84.0716 8.73698 83.5977 8.9375C83.1237 9.13802 82.7044 9.42057 82.3398 9.78516C81.9935 10.1315 81.7201 10.5417 81.5195 11.0156C81.319 11.4896 81.2188 12 81.2188 12.5469C81.2188 13.0938 81.319 13.6133 81.5195 14.1055C81.7201 14.5794 81.9935 14.9987 82.3398 15.3633C82.7044 15.7096 83.1237 15.9831 83.5977 16.1836C84.0716 16.3841 84.582 16.4844 85.1289 16.4844H92.9766C94.599 16.4844 96.1211 16.7943 97.543 17.4141C98.9831 18.0156 100.232 18.8542 101.289 19.9297C102.365 20.987 103.203 22.2357 103.805 23.6758C104.424 25.0977 104.734 26.6198 104.734 28.2422C104.734 29.8646 104.424 31.3867 103.805 32.8086C103.203 34.2305 102.365 35.4792 101.289 36.5547C100.232 37.612 98.9831 38.4505 97.543 39.0703C96.1211 39.6901 94.599 40 92.9766 40H75.5586V32.1523H92.9766C93.5234 32.1523 94.0339 32.0521 94.5078 31.8516C94.9818 31.651 95.3919 31.3776 95.7383 31.0312C96.1029 30.6667 96.3854 30.2474 96.5859 29.7734C96.7865 29.2995 96.8867 28.7891 96.8867 28.2422C96.8867 27.6953 96.7865 27.1849 96.5859 26.7109C96.3854 26.237 96.1029 25.8268 95.7383 25.4805C95.3919 25.1159 94.9818 24.8333 94.5078 24.6328C94.0339 24.4323 93.5234 24.332 92.9766 24.332H85.1289C83.5065 24.332 81.9844 24.0221 80.5625 23.4023C79.1406 22.7826 77.8919 21.944 76.8164 20.8867C75.7591 19.8112 74.9206 18.5625 74.3008 17.1406C73.681 15.7005 73.3711 14.1693 73.3711 12.5469ZM141.211 35.9805C139.388 37.5482 137.346 38.7513 135.086 39.5898C132.826 40.4284 130.483 40.8477 128.059 40.8477C126.199 40.8477 124.404 40.6016 122.672 40.1094C120.958 39.6354 119.345 38.9609 117.832 38.0859C116.337 37.1927 114.97 36.1263 113.73 34.8867C112.491 33.6471 111.424 32.2799 110.531 30.7852C109.656 29.2721 108.973 27.6589 108.48 25.9453C108.007 24.2135 107.77 22.418 107.77 20.5586C107.77 18.6992 108.007 16.9036 108.48 15.1719C108.973 13.4401 109.656 11.8268 110.531 10.332C111.424 8.81901 112.491 7.44271 113.73 6.20312C114.97 4.96354 116.337 3.90625 117.832 3.03125C119.345 2.13802 120.958 1.45443 122.672 0.980469C124.404 0.488281 126.199 0.242188 128.059 0.242188C130.483 0.242188 132.826 0.661458 135.086 1.5C137.346 2.32031 139.388 3.52344 141.211 5.10938L137.055 11.9453C135.906 10.7057 134.548 9.75781 132.98 9.10156C131.413 8.42708 129.772 8.08984 128.059 8.08984C126.327 8.08984 124.704 8.41797 123.191 9.07422C121.678 9.73047 120.357 10.6237 119.227 11.7539C118.096 12.8659 117.203 14.1875 116.547 15.7188C115.891 17.2318 115.562 18.8451 115.562 20.5586C115.562 22.2721 115.891 23.8854 116.547 25.3984C117.203 26.8932 118.096 28.2057 119.227 29.3359C120.357 30.4661 121.678 31.3594 123.191 32.0156C124.704 32.6719 126.327 33 128.059 33C129.772 33 131.413 32.6719 132.98 32.0156C134.548 31.3411 135.906 30.3841 137.055 29.1445L141.211 35.9805ZM168.855 24.332V16.4844C168.855 15.4089 168.646 14.3971 168.227 13.4492C167.826 12.4831 167.27 11.6445 166.559 10.9336C165.848 10.2227 165.009 9.66667 164.043 9.26562C163.095 8.84635 162.083 8.63672 161.008 8.63672C159.932 8.63672 158.911 8.84635 157.945 9.26562C156.997 9.66667 156.168 10.2227 155.457 10.9336C154.746 11.6445 154.181 12.4831 153.762 13.4492C153.361 14.3971 153.16 15.4089 153.16 16.4844V24.332H168.855ZM176.703 40H168.855V32.1523H153.16V40H145.34V16.4844C145.34 14.3151 145.75 12.2826 146.57 10.3867C147.391 8.47266 148.503 6.80469 149.906 5.38281C151.328 3.96094 152.987 2.83984 154.883 2.01953C156.797 1.19922 158.839 0.789062 161.008 0.789062C163.177 0.789062 165.21 1.19922 167.105 2.01953C169.02 2.83984 170.688 3.96094 172.109 5.38281C173.531 6.80469 174.652 8.47266 175.473 10.3867C176.293 12.2826 176.703 14.3151 176.703 16.4844V40ZM191.359 8.63672V24.332H199.207C200.283 24.332 201.294 24.1315 202.242 23.7305C203.19 23.3112 204.02 22.7461 204.73 22.0352C205.441 21.3242 205.997 20.4948 206.398 19.5469C206.818 18.5807 207.027 17.5599 207.027 16.4844C207.027 15.4089 206.818 14.3971 206.398 13.4492C205.997 12.4831 205.441 11.6445 204.73 10.9336C204.02 10.2227 203.19 9.66667 202.242 9.26562C201.294 8.84635 200.283 8.63672 199.207 8.63672H191.359ZM191.359 40H183.512V0.789062H199.207C200.647 0.789062 202.033 0.980469 203.363 1.36328C204.694 1.72786 205.934 2.25651 207.082 2.94922C208.249 3.6237 209.306 4.44401 210.254 5.41016C211.22 6.35807 212.04 7.41536 212.715 8.58203C213.408 9.7487 213.936 10.9974 214.301 12.3281C214.684 13.6589 214.875 15.0443 214.875 16.4844C214.875 17.8333 214.702 19.1458 214.355 20.4219C214.027 21.6979 213.544 22.9102 212.906 24.0586C212.286 25.207 211.521 26.2643 210.609 27.2305C209.698 28.1966 208.677 29.0352 207.547 29.7461L211.895 40H203.555L200.137 32.0977L191.359 32.1523V40ZM251.461 20.3945C251.461 22.1992 251.224 23.9401 250.75 25.6172C250.294 27.276 249.638 28.8346 248.781 30.293C247.924 31.7331 246.904 33.0547 245.719 34.2578C244.534 35.4427 243.212 36.4635 241.754 37.3203C240.296 38.1771 238.728 38.8424 237.051 39.3164C235.392 39.7721 233.66 40 231.855 40H220.043V0.789062H231.855C233.66 0.789062 235.392 1.02604 237.051 1.5C238.728 1.95573 240.296 2.61198 241.754 3.46875C243.212 4.32552 244.534 5.35547 245.719 6.55859C246.904 7.74349 247.924 9.0651 248.781 10.5234C249.638 11.9635 250.294 13.5221 250.75 15.1992C251.224 16.8581 251.461 18.5898 251.461 20.3945ZM243.613 20.3945C243.613 18.7721 243.303 17.25 242.684 15.8281C242.082 14.4062 241.243 13.1667 240.168 12.1094C239.111 11.0339 237.862 10.1862 236.422 9.56641C235 8.94661 233.478 8.63672 231.855 8.63672H227.945V32.1523H231.855C233.478 32.1523 235 31.8516 236.422 31.25C237.862 30.6302 239.111 29.7917 240.168 28.7344C241.243 27.6589 242.082 26.4102 242.684 24.9883C243.303 23.5482 243.613 22.0169 243.613 20.3945Z" fill="url(#paint0_linear_108_1640)"/>
<defs>
<linearGradient id="paint0_linear_108_1640" x1="-32" y1="29.5" x2="216.5" y2="7.5" gradientUnits="userSpaceOnUse">
<stop stop-color="#080721"/>
<stop offset="1" stop-color="#6A64F6"/>
</linearGradient>
</defs>
</svg>
